<mxfile host="app.diagrams.net" modified="2023-04-29T20:29:39.644Z" agent="Mozilla/5.0 (Windows NT 10.0; Win64; x64) AppleWebKit/537.36 (KHTML, like Gecko) Chrome/112.0.0.0 Safari/537.36" etag="YJCIY-D6SX5FXsLaNQWy" version="21.2.3" type="device" pages="2">
  <diagram name="Page-1" id="03018318-947c-dd8e-b7a3-06fadd420f32">
    <mxGraphModel dx="5425" dy="4833" grid="1" gridSize="10" guides="1" tooltips="1" connect="1" arrows="1" fold="1" page="1" pageScale="1" pageWidth="1100" pageHeight="850" background="#ffffff" math="0" shadow="0">
      <root>
        <mxCell id="0" />
        <mxCell id="1" parent="0" />
        <mxCell id="u8rbjCPiCwM-e9YLDYWu-1" value="" style="strokeWidth=1;shadow=0;dashed=0;align=center;html=1;shape=mxgraph.mockup.containers.browserWindow;rSize=0;strokeColor=#666666;strokeColor2=#008cff;strokeColor3=#c4c4c4;mainText=,;recursiveResize=0;opacity=80;fontStyle=1" parent="1" vertex="1">
          <mxGeometry x="-601" y="-2560" width="1630" height="2974.25" as="geometry" />
        </mxCell>
        <mxCell id="QMJ3Bgp5y9ohieO_kdKa-25" value="" style="whiteSpace=wrap;html=1;aspect=fixed;fillColor=#1ba1e2;fontColor=#ffffff;strokeColor=#006EAF;" parent="u8rbjCPiCwM-e9YLDYWu-1" vertex="1">
          <mxGeometry x="1140" y="950" width="350" height="350" as="geometry" />
        </mxCell>
        <mxCell id="u8rbjCPiCwM-e9YLDYWu-2" value="Page 1" style="strokeWidth=1;shadow=0;dashed=0;align=center;html=1;shape=mxgraph.mockup.containers.anchor;fontSize=17;fontColor=#666666;align=left;whiteSpace=wrap;" parent="u8rbjCPiCwM-e9YLDYWu-1" vertex="1">
          <mxGeometry x="60" y="12" width="110" height="26" as="geometry" />
        </mxCell>
        <mxCell id="u8rbjCPiCwM-e9YLDYWu-3" value="https://www.draw.io" style="strokeWidth=1;shadow=0;dashed=0;align=center;html=1;shape=mxgraph.mockup.containers.anchor;rSize=0;fontSize=17;fontColor=#666666;align=left;" parent="u8rbjCPiCwM-e9YLDYWu-1" vertex="1">
          <mxGeometry x="130" y="60" width="250" height="26" as="geometry" />
        </mxCell>
        <mxCell id="u8rbjCPiCwM-e9YLDYWu-5" value="" style="rounded=0;whiteSpace=wrap;html=1;fillColor=#707070;gradientColor=default;gradientDirection=west;opacity=90;" parent="u8rbjCPiCwM-e9YLDYWu-1" vertex="1">
          <mxGeometry y="90" width="1630" height="50" as="geometry" />
        </mxCell>
        <mxCell id="5H4FzFm4fiNq7I0S5mP8-1" value="&lt;h1&gt;&amp;nbsp;&lt;/h1&gt;&lt;p&gt;&lt;br&gt;&lt;/p&gt;" style="text;html=1;strokeColor=#d79b00;fillColor=#ffe6cc;spacing=5;spacingTop=-20;whiteSpace=wrap;overflow=hidden;rounded=0;" parent="u8rbjCPiCwM-e9YLDYWu-1" vertex="1">
          <mxGeometry y="140" width="1630" height="730" as="geometry" />
        </mxCell>
        <mxCell id="QMJ3Bgp5y9ohieO_kdKa-3" value="&lt;span style=&quot;font-size: 71px;&quot;&gt;IMAGEN&lt;/span&gt;" style="text;html=1;strokeColor=none;fillColor=none;align=center;verticalAlign=middle;whiteSpace=wrap;rounded=0;strokeWidth=221;" parent="u8rbjCPiCwM-e9YLDYWu-1" vertex="1">
          <mxGeometry x="576" y="435" width="840" height="129" as="geometry" />
        </mxCell>
        <mxCell id="u8rbjCPiCwM-e9YLDYWu-8" value="" style="verticalLabelPosition=bottom;sketch=0;aspect=fixed;html=1;verticalAlign=top;strokeColor=none;align=center;outlineConnect=0;shape=mxgraph.citrix.citrix_logo;fillColor=#4E4F53;" parent="u8rbjCPiCwM-e9YLDYWu-1" vertex="1">
          <mxGeometry x="5" y="83.75" width="160" height="62.5" as="geometry" />
        </mxCell>
        <mxCell id="u8rbjCPiCwM-e9YLDYWu-11" value="" style="strokeWidth=1;shadow=0;dashed=0;align=center;html=1;shape=mxgraph.mockup.rrect;rSize=10;fillColor=#ffffff;strokeColor=#666666;" parent="u8rbjCPiCwM-e9YLDYWu-1" vertex="1">
          <mxGeometry x="1130" y="90" width="500" height="50" as="geometry" />
        </mxCell>
        <mxCell id="u8rbjCPiCwM-e9YLDYWu-12" value="Gallery" style="strokeColor=inherit;fillColor=inherit;gradientColor=inherit;strokeWidth=1;shadow=0;dashed=0;align=center;html=1;shape=mxgraph.mockup.rrect;rSize=0;fontSize=17;fontColor=#666666;fontStyle=1;resizeHeight=1;whiteSpace=wrap;" parent="u8rbjCPiCwM-e9YLDYWu-11" vertex="1">
          <mxGeometry width="125" height="50" relative="1" as="geometry">
            <mxPoint x="125" as="offset" />
          </mxGeometry>
        </mxCell>
        <mxCell id="u8rbjCPiCwM-e9YLDYWu-13" value="Shop" style="strokeColor=inherit;fillColor=inherit;gradientColor=inherit;strokeWidth=1;shadow=0;dashed=0;align=center;html=1;shape=mxgraph.mockup.rrect;rSize=0;fontSize=17;fontColor=#666666;fontStyle=1;resizeHeight=1;whiteSpace=wrap;" parent="u8rbjCPiCwM-e9YLDYWu-11" vertex="1">
          <mxGeometry width="125" height="50" relative="1" as="geometry">
            <mxPoint x="250" as="offset" />
          </mxGeometry>
        </mxCell>
        <mxCell id="u8rbjCPiCwM-e9YLDYWu-15" value="Forum" style="strokeWidth=1;shadow=0;dashed=0;align=center;html=1;shape=mxgraph.mockup.leftButton;rSize=10;fontSize=17;fontColor=#ffffff;fontStyle=1;fillColor=#008cff;strokeColor=#008cff;resizeHeight=1;whiteSpace=wrap;" parent="u8rbjCPiCwM-e9YLDYWu-11" vertex="1">
          <mxGeometry width="125" height="50" relative="1" as="geometry">
            <mxPoint as="offset" />
          </mxGeometry>
        </mxCell>
        <mxCell id="u8rbjCPiCwM-e9YLDYWu-16" value="&lt;div style=&quot;text-align: center;&quot;&gt;&lt;span style=&quot;background-color: initial; font-size: 17px;&quot;&gt;&lt;font color=&quot;#666666&quot;&gt;&lt;b&gt;Tutorial&lt;/b&gt;&lt;/font&gt;&lt;/span&gt;&lt;/div&gt;" style="text;whiteSpace=wrap;html=1;" parent="u8rbjCPiCwM-e9YLDYWu-11" vertex="1">
          <mxGeometry x="400" y="8" width="80" height="40" as="geometry" />
        </mxCell>
        <mxCell id="QMJ3Bgp5y9ohieO_kdKa-8" value="" style="rounded=0;whiteSpace=wrap;html=1;fillColor=#dae8fc;strokeColor=#6c8ebf;" parent="u8rbjCPiCwM-e9YLDYWu-1" vertex="1">
          <mxGeometry y="880" width="1630" height="460" as="geometry" />
        </mxCell>
        <mxCell id="QMJ3Bgp5y9ohieO_kdKa-85" value="" style="rounded=0;whiteSpace=wrap;html=1;fillColor=#dae8fc;strokeColor=#6c8ebf;" parent="u8rbjCPiCwM-e9YLDYWu-1" vertex="1">
          <mxGeometry y="1349" width="1630" height="510" as="geometry" />
        </mxCell>
        <mxCell id="QMJ3Bgp5y9ohieO_kdKa-88" value="" style="rounded=0;whiteSpace=wrap;html=1;fillColor=#60a917;fontColor=#ffffff;strokeColor=#2D7600;" parent="u8rbjCPiCwM-e9YLDYWu-1" vertex="1">
          <mxGeometry x="372" y="1350" width="1248" height="506" as="geometry" />
        </mxCell>
        <mxCell id="QMJ3Bgp5y9ohieO_kdKa-91" value="&lt;h1 style=&quot;font-size: 35px;&quot;&gt;Texto&lt;/h1&gt;&lt;p&gt;Lorem ipsum dolor sit amet, consectetur adipisicing elit, sed do eiusmod tempor incididunt ut labore et dolore magna aliqua.&lt;/p&gt;" style="text;html=1;strokeColor=#006EAF;fillColor=#1ba1e2;spacing=5;spacingTop=-20;whiteSpace=wrap;overflow=hidden;rounded=0;fontColor=#ffffff;" parent="u8rbjCPiCwM-e9YLDYWu-1" vertex="1">
          <mxGeometry x="40" y="1400" width="300" height="210" as="geometry" />
        </mxCell>
        <mxCell id="QMJ3Bgp5y9ohieO_kdKa-92" value="&lt;span style=&quot;font-size: 71px;&quot;&gt;IMAGEN&lt;/span&gt;" style="text;html=1;strokeColor=none;fillColor=none;align=center;verticalAlign=middle;whiteSpace=wrap;rounded=0;strokeWidth=221;" parent="u8rbjCPiCwM-e9YLDYWu-1" vertex="1">
          <mxGeometry x="600" y="1530" width="840" height="129" as="geometry" />
        </mxCell>
        <mxCell id="QMJ3Bgp5y9ohieO_kdKa-94" value="Button Text" style="strokeWidth=1;shadow=0;dashed=0;align=center;html=1;shape=mxgraph.mockup.buttons.button;strokeColor=#666666;fontColor=#ffffff;mainText=;buttonStyle=round;fontSize=17;fontStyle=1;fillColor=#008cff;whiteSpace=wrap;" parent="u8rbjCPiCwM-e9YLDYWu-1" vertex="1">
          <mxGeometry x="105" y="1560" width="150" height="50" as="geometry" />
        </mxCell>
        <mxCell id="QMJ3Bgp5y9ohieO_kdKa-219" value="" style="rounded=0;whiteSpace=wrap;html=1;fillColor=#dae8fc;strokeColor=#6c8ebf;" parent="u8rbjCPiCwM-e9YLDYWu-1" vertex="1">
          <mxGeometry x="2" y="1872" width="1628" height="518" as="geometry" />
        </mxCell>
        <mxCell id="QMJ3Bgp5y9ohieO_kdKa-221" value="" style="rounded=0;whiteSpace=wrap;html=1;fillColor=#60a917;fontColor=#ffffff;strokeColor=#2D7600;" parent="u8rbjCPiCwM-e9YLDYWu-1" vertex="1">
          <mxGeometry x="372" y="1878" width="1248" height="506" as="geometry" />
        </mxCell>
        <mxCell id="QMJ3Bgp5y9ohieO_kdKa-222" value="&lt;span style=&quot;font-size: 71px;&quot;&gt;IMAGEN&lt;/span&gt;" style="text;html=1;strokeColor=none;fillColor=none;align=center;verticalAlign=middle;whiteSpace=wrap;rounded=0;strokeWidth=221;" parent="u8rbjCPiCwM-e9YLDYWu-1" vertex="1">
          <mxGeometry x="600" y="2020" width="840" height="129" as="geometry" />
        </mxCell>
        <mxCell id="QMJ3Bgp5y9ohieO_kdKa-237" value="" style="group" parent="u8rbjCPiCwM-e9YLDYWu-1" vertex="1" connectable="0">
          <mxGeometry x="40" y="1930" width="300" height="250" as="geometry" />
        </mxCell>
        <mxCell id="QMJ3Bgp5y9ohieO_kdKa-223" value="&lt;h1 style=&quot;font-size: 35px;&quot;&gt;Texto&lt;/h1&gt;&lt;p&gt;Lorem ipsum dolor sit amet, consectetur adipisicing eli&lt;/p&gt;" style="text;html=1;strokeColor=#006EAF;fillColor=#1ba1e2;spacing=5;spacingTop=-20;whiteSpace=wrap;overflow=hidden;rounded=0;fontColor=#ffffff;" parent="QMJ3Bgp5y9ohieO_kdKa-237" vertex="1">
          <mxGeometry width="300" height="250" as="geometry" />
        </mxCell>
        <mxCell id="QMJ3Bgp5y9ohieO_kdKa-224" value="" style="image;html=1;image=img/lib/atlassian/Bitbucket_Logo.svg;" parent="QMJ3Bgp5y9ohieO_kdKa-237" vertex="1">
          <mxGeometry y="105" width="57" height="50" as="geometry" />
        </mxCell>
        <mxCell id="QMJ3Bgp5y9ohieO_kdKa-225" value="" style="image;html=1;image=img/lib/atlassian/Crowd_Logo.svg;" parent="QMJ3Bgp5y9ohieO_kdKa-237" vertex="1">
          <mxGeometry x="61.5" y="100" width="57" height="55" as="geometry" />
        </mxCell>
        <mxCell id="QMJ3Bgp5y9ohieO_kdKa-227" value="asad Texto-Link" style="html=1;shadow=0;dashed=0;shape=mxgraph.bootstrap.rrect;rSize=5;strokeColor=#005700;strokeWidth=1;fillColor=#008a00;fontColor=#ffffff;whiteSpace=wrap;align=center;verticalAlign=middle;spacingLeft=0;fontStyle=0;fontSize=16;spacing=5;" parent="QMJ3Bgp5y9ohieO_kdKa-237" vertex="1">
          <mxGeometry x="118.5" y="123" width="140" height="25" as="geometry" />
        </mxCell>
        <mxCell id="QMJ3Bgp5y9ohieO_kdKa-235" value="Button Text" style="strokeWidth=1;shadow=0;dashed=0;align=center;html=1;shape=mxgraph.mockup.buttons.button;strokeColor=#666666;fontColor=#ffffff;mainText=;buttonStyle=round;fontSize=17;fontStyle=1;fillColor=#008cff;whiteSpace=wrap;" parent="QMJ3Bgp5y9ohieO_kdKa-237" vertex="1">
          <mxGeometry x="61.5" y="200" width="150" height="50" as="geometry" />
        </mxCell>
        <mxCell id="QMJ3Bgp5y9ohieO_kdKa-239" value="" style="rounded=0;whiteSpace=wrap;html=1;fillColor=#dae8fc;strokeColor=#6c8ebf;" parent="u8rbjCPiCwM-e9YLDYWu-1" vertex="1">
          <mxGeometry x="2" y="2400" width="1622" height="518" as="geometry" />
        </mxCell>
        <mxCell id="QMJ3Bgp5y9ohieO_kdKa-339" value="" style="rounded=0;whiteSpace=wrap;html=1;fillColor=#60a917;fontColor=#ffffff;strokeColor=#2D7600;" parent="u8rbjCPiCwM-e9YLDYWu-1" vertex="1">
          <mxGeometry y="2410" width="1630" height="508" as="geometry" />
        </mxCell>
        <mxCell id="QMJ3Bgp5y9ohieO_kdKa-340" value="&lt;span style=&quot;font-size: 71px;&quot;&gt;IMAGEN&lt;/span&gt;" style="text;html=1;strokeColor=none;fillColor=none;align=center;verticalAlign=middle;whiteSpace=wrap;rounded=0;strokeWidth=221;" parent="u8rbjCPiCwM-e9YLDYWu-1" vertex="1">
          <mxGeometry x="600" y="2495.5" width="840" height="129" as="geometry" />
        </mxCell>
        <mxCell id="QMJ3Bgp5y9ohieO_kdKa-338" value="" style="group" parent="u8rbjCPiCwM-e9YLDYWu-1" vertex="1" connectable="0">
          <mxGeometry x="40" y="2460" width="272.5" height="200" as="geometry" />
        </mxCell>
        <mxCell id="QMJ3Bgp5y9ohieO_kdKa-336" value="" style="rounded=0;whiteSpace=wrap;html=1;fillColor=#1ba1e2;fontColor=#ffffff;strokeColor=#006EAF;" parent="QMJ3Bgp5y9ohieO_kdKa-338" vertex="1">
          <mxGeometry width="272.5" height="200" as="geometry" />
        </mxCell>
        <mxCell id="QMJ3Bgp5y9ohieO_kdKa-328" value="Button Text" style="strokeWidth=1;shadow=0;dashed=0;align=center;html=1;shape=mxgraph.mockup.buttons.button;strokeColor=#666666;fontColor=#ffffff;mainText=;buttonStyle=round;fontSize=17;fontStyle=1;fillColor=#008cff;whiteSpace=wrap;" parent="QMJ3Bgp5y9ohieO_kdKa-338" vertex="1">
          <mxGeometry x="61.25" y="150" width="150" height="50" as="geometry" />
        </mxCell>
        <mxCell id="QMJ3Bgp5y9ohieO_kdKa-324" value="&lt;font style=&quot;font-size: 50px;&quot;&gt;Texto&amp;nbsp;&lt;/font&gt;" style="text;html=1;strokeColor=none;fillColor=none;align=center;verticalAlign=middle;whiteSpace=wrap;rounded=0;fontStyle=1" parent="QMJ3Bgp5y9ohieO_kdKa-338" vertex="1">
          <mxGeometry x="92.5" y="60" width="95" height="40" as="geometry" />
        </mxCell>
        <mxCell id="QMJ3Bgp5y9ohieO_kdKa-349" value="" style="group" parent="u8rbjCPiCwM-e9YLDYWu-1" vertex="1" connectable="0">
          <mxGeometry x="640" y="2690" width="720" height="220" as="geometry" />
        </mxCell>
        <mxCell id="QMJ3Bgp5y9ohieO_kdKa-346" value="" style="rounded=0;whiteSpace=wrap;html=1;fillColor=#1ba1e2;fontColor=#ffffff;strokeColor=#006EAF;" parent="QMJ3Bgp5y9ohieO_kdKa-349" vertex="1">
          <mxGeometry width="720" height="220" as="geometry" />
        </mxCell>
        <mxCell id="QMJ3Bgp5y9ohieO_kdKa-348" value="" style="group" parent="QMJ3Bgp5y9ohieO_kdKa-349" vertex="1" connectable="0">
          <mxGeometry x="80" y="22.758620689655174" width="548" height="172.9655172413793" as="geometry" />
        </mxCell>
        <mxCell id="QMJ3Bgp5y9ohieO_kdKa-243" value="" style="shape=image;html=1;verticalAlign=top;verticalLabelPosition=bottom;labelBackgroundColor=#ffffff;imageAspect=0;aspect=fixed;image=https://cdn2.iconfinder.com/data/icons/social-media-and-payment/64/-36-128.png" parent="QMJ3Bgp5y9ohieO_kdKa-348" vertex="1">
          <mxGeometry x="300" y="91.03448275862068" width="81.9310344827586" height="81.9310344827586" as="geometry" />
        </mxCell>
        <mxCell id="QMJ3Bgp5y9ohieO_kdKa-242" value="" style="shape=image;html=1;verticalAlign=top;verticalLabelPosition=bottom;labelBackgroundColor=#ffffff;imageAspect=0;aspect=fixed;image=https://cdn2.iconfinder.com/data/icons/social-media-2189/48/4-Facebook-128.png" parent="QMJ3Bgp5y9ohieO_kdKa-348" vertex="1">
          <mxGeometry x="142" y="91.03448275862068" width="81.9310344827586" height="81.9310344827586" as="geometry" />
        </mxCell>
        <mxCell id="QMJ3Bgp5y9ohieO_kdKa-241" value="" style="shape=image;html=1;verticalAlign=top;verticalLabelPosition=bottom;labelBackgroundColor=#ffffff;imageAspect=0;aspect=fixed;image=https://cdn3.iconfinder.com/data/icons/2018-social-media-logotypes/1000/2018_social_media_popular_app_logo_twitter-128.png" parent="QMJ3Bgp5y9ohieO_kdKa-348" vertex="1">
          <mxGeometry y="91.03448275862068" width="81.9310344827586" height="81.9310344827586" as="geometry" />
        </mxCell>
        <mxCell id="QMJ3Bgp5y9ohieO_kdKa-240" value="&lt;font style=&quot;font-size: 40px;&quot;&gt;Texto&amp;nbsp;&lt;/font&gt;" style="text;html=1;strokeColor=none;fillColor=none;align=center;verticalAlign=middle;whiteSpace=wrap;rounded=0;fontStyle=1" parent="QMJ3Bgp5y9ohieO_kdKa-348" vertex="1">
          <mxGeometry x="260" width="50" height="30.34482758620689" as="geometry" />
        </mxCell>
        <mxCell id="QMJ3Bgp5y9ohieO_kdKa-323" value="" style="shape=image;html=1;verticalAlign=top;verticalLabelPosition=bottom;labelBackgroundColor=#ffffff;imageAspect=0;aspect=fixed;image=https://cdn2.iconfinder.com/data/icons/social-media-and-payment/64/-36-128.png" parent="QMJ3Bgp5y9ohieO_kdKa-348" vertex="1">
          <mxGeometry x="440" y="91.03448275862068" width="81.9310344827586" height="81.9310344827586" as="geometry" />
        </mxCell>
        <mxCell id="u8rbjCPiCwM-e9YLDYWu-62" value="" style="rounded=0;whiteSpace=wrap;html=1;fillColor=#707070;gradientColor=default;gradientDirection=west;opacity=70;" parent="u8rbjCPiCwM-e9YLDYWu-1" vertex="1">
          <mxGeometry y="2918" width="1630" height="50" as="geometry" />
        </mxCell>
        <mxCell id="u8rbjCPiCwM-e9YLDYWu-64" value="&lt;h1&gt;&lt;span style=&quot;background-color: initial; font-size: 12px; font-weight: normal;&quot;&gt;Lorem ipsum dolor sit amet, consectetur adipisicing elit, sed do eiusmod tempor incididunt ut labore et dolore magna aliqua.&lt;/span&gt;&lt;br&gt;&lt;/h1&gt;" style="text;html=1;strokeColor=#3700CC;fillColor=#6a00ff;spacing=5;spacingTop=-20;whiteSpace=wrap;overflow=hidden;rounded=0;fontColor=#ffffff;" parent="u8rbjCPiCwM-e9YLDYWu-1" vertex="1">
          <mxGeometry x="5" y="2918" width="410" height="40" as="geometry" />
        </mxCell>
        <mxCell id="QMJ3Bgp5y9ohieO_kdKa-351" value="" style="group" parent="u8rbjCPiCwM-e9YLDYWu-1" vertex="1" connectable="0">
          <mxGeometry x="40" y="180" width="660" height="350" as="geometry" />
        </mxCell>
        <mxCell id="QMJ3Bgp5y9ohieO_kdKa-350" value="" style="rounded=0;whiteSpace=wrap;html=1;fillColor=#1ba1e2;fontColor=#ffffff;strokeColor=#006EAF;" parent="QMJ3Bgp5y9ohieO_kdKa-351" vertex="1">
          <mxGeometry x="10" width="620" height="350" as="geometry" />
        </mxCell>
        <mxCell id="QMJ3Bgp5y9ohieO_kdKa-5" value="&lt;font style=&quot;font-size: 110px;&quot;&gt;Main text&lt;/font&gt;" style="text;html=1;strokeColor=none;fillColor=none;align=center;verticalAlign=middle;whiteSpace=wrap;rounded=0;strokeWidth=8;fontStyle=1" parent="QMJ3Bgp5y9ohieO_kdKa-351" vertex="1">
          <mxGeometry x="13.5" y="60" width="490" height="30" as="geometry" />
        </mxCell>
        <mxCell id="QMJ3Bgp5y9ohieO_kdKa-6" value="&lt;font style=&quot;font-size: 25px;&quot;&gt;Second: text ksadasdasdadasdasdasdasdasd&lt;/font&gt;" style="text;html=1;strokeColor=none;fillColor=none;align=center;verticalAlign=middle;whiteSpace=wrap;rounded=0;strokeWidth=8;" parent="QMJ3Bgp5y9ohieO_kdKa-351" vertex="1">
          <mxGeometry x="-26.5" y="140" width="620" height="30" as="geometry" />
        </mxCell>
        <mxCell id="QMJ3Bgp5y9ohieO_kdKa-4" value="Button Text" style="strokeWidth=1;shadow=0;dashed=0;align=center;html=1;shape=mxgraph.mockup.buttons.button;strokeColor=#666666;fontColor=#ffffff;mainText=;buttonStyle=round;fontSize=17;fontStyle=1;fillColor=#008cff;whiteSpace=wrap;" parent="QMJ3Bgp5y9ohieO_kdKa-351" vertex="1">
          <mxGeometry x="60" y="220" width="150" height="50" as="geometry" />
        </mxCell>
        <mxCell id="QMJ3Bgp5y9ohieO_kdKa-374" value="" style="verticalLabelPosition=bottom;sketch=0;aspect=fixed;html=1;verticalAlign=top;strokeColor=none;align=center;outlineConnect=0;shape=mxgraph.citrix.citrix_logo;fillColor=#4E4F53;" parent="u8rbjCPiCwM-e9YLDYWu-1" vertex="1">
          <mxGeometry x="850" y="2911.75" width="160" height="62.5" as="geometry" />
        </mxCell>
        <mxCell id="QMJ3Bgp5y9ohieO_kdKa-39" value="" style="group;aspect=fixed;" parent="u8rbjCPiCwM-e9YLDYWu-1" vertex="1" connectable="0">
          <mxGeometry x="50" y="980" width="340" height="335" as="geometry" />
        </mxCell>
        <mxCell id="QMJ3Bgp5y9ohieO_kdKa-40" value="" style="whiteSpace=wrap;html=1;aspect=fixed;fillColor=#1ba1e2;fontColor=#ffffff;strokeColor=#006EAF;" parent="QMJ3Bgp5y9ohieO_kdKa-39" vertex="1">
          <mxGeometry width="335" height="335" as="geometry" />
        </mxCell>
        <mxCell id="QMJ3Bgp5y9ohieO_kdKa-41" value="" style="rounded=0;whiteSpace=wrap;html=1;fillColor=#60a917;strokeColor=#2D7600;fontColor=#ffffff;aspect=fixed;" parent="QMJ3Bgp5y9ohieO_kdKa-39" vertex="1">
          <mxGeometry width="335" height="167.5" as="geometry" />
        </mxCell>
        <mxCell id="QMJ3Bgp5y9ohieO_kdKa-42" value="" style="rounded=0;whiteSpace=wrap;html=1;opacity=30;aspect=fixed;" parent="QMJ3Bgp5y9ohieO_kdKa-39" vertex="1">
          <mxGeometry y="167.5" width="335" height="88.1578947368421" as="geometry" />
        </mxCell>
        <mxCell id="QMJ3Bgp5y9ohieO_kdKa-46" value="" style="group" parent="QMJ3Bgp5y9ohieO_kdKa-39" vertex="1" connectable="0">
          <mxGeometry y="40" width="330" height="280" as="geometry" />
        </mxCell>
        <mxCell id="QMJ3Bgp5y9ohieO_kdKa-49" value="&lt;font style=&quot;font-size: 25px;&quot;&gt;Second: text ksadasdasdadasdadasd&lt;/font&gt;" style="text;html=1;strokeColor=none;fillColor=none;align=center;verticalAlign=middle;whiteSpace=wrap;rounded=0;strokeWidth=8;" parent="QMJ3Bgp5y9ohieO_kdKa-46" vertex="1">
          <mxGeometry x="86.8421052631579" y="157.5" width="173.6842105263158" height="52.5" as="geometry" />
        </mxCell>
        <mxCell id="QMJ3Bgp5y9ohieO_kdKa-47" value="&lt;span style=&quot;font-size: 25px;&quot;&gt;IMAGEN&lt;/span&gt;" style="text;html=1;strokeColor=none;fillColor=none;align=center;verticalAlign=middle;whiteSpace=wrap;rounded=0;" parent="QMJ3Bgp5y9ohieO_kdKa-46" vertex="1">
          <mxGeometry x="151.97368421052633" width="43.42105263157895" height="40" as="geometry" />
        </mxCell>
        <UserObject label="%date{ddd mmm dd yyyy HH:MM:ss}%" placeholders="1" id="QMJ3Bgp5y9ohieO_kdKa-81">
          <mxCell style="text;html=1;strokeColor=none;fillColor=none;align=center;verticalAlign=middle;whiteSpace=wrap;overflow=hidden;" parent="QMJ3Bgp5y9ohieO_kdKa-46" vertex="1">
            <mxGeometry y="240" width="160" height="20" as="geometry" />
          </mxCell>
        </UserObject>
        <mxCell id="QMJ3Bgp5y9ohieO_kdKa-48" value="" style="rounded=0;whiteSpace=wrap;html=1;opacity=30;" parent="QMJ3Bgp5y9ohieO_kdKa-39" vertex="1">
          <mxGeometry y="170" width="340" height="90" as="geometry" />
        </mxCell>
        <mxCell id="QMJ3Bgp5y9ohieO_kdKa-68" value="" style="group;aspect=fixed;" parent="u8rbjCPiCwM-e9YLDYWu-1" vertex="1" connectable="0">
          <mxGeometry x="1250" y="980" width="340" height="335" as="geometry" />
        </mxCell>
        <mxCell id="QMJ3Bgp5y9ohieO_kdKa-69" value="" style="whiteSpace=wrap;html=1;aspect=fixed;fillColor=#1ba1e2;fontColor=#ffffff;strokeColor=#006EAF;" parent="QMJ3Bgp5y9ohieO_kdKa-68" vertex="1">
          <mxGeometry width="335" height="335" as="geometry" />
        </mxCell>
        <mxCell id="QMJ3Bgp5y9ohieO_kdKa-70" value="" style="rounded=0;whiteSpace=wrap;html=1;fillColor=#60a917;strokeColor=#2D7600;fontColor=#ffffff;aspect=fixed;" parent="QMJ3Bgp5y9ohieO_kdKa-68" vertex="1">
          <mxGeometry width="335" height="167.5" as="geometry" />
        </mxCell>
        <mxCell id="QMJ3Bgp5y9ohieO_kdKa-71" value="" style="rounded=0;whiteSpace=wrap;html=1;opacity=30;aspect=fixed;" parent="QMJ3Bgp5y9ohieO_kdKa-68" vertex="1">
          <mxGeometry y="167.5" width="335" height="88.1578947368421" as="geometry" />
        </mxCell>
        <mxCell id="QMJ3Bgp5y9ohieO_kdKa-72" value="" style="group" parent="QMJ3Bgp5y9ohieO_kdKa-68" vertex="1" connectable="0">
          <mxGeometry y="40" width="330" height="280" as="geometry" />
        </mxCell>
        <mxCell id="QMJ3Bgp5y9ohieO_kdKa-73" value="&lt;font style=&quot;font-size: 25px;&quot;&gt;Second: text ksadasdasdadasdadasd&lt;/font&gt;" style="text;html=1;strokeColor=none;fillColor=none;align=center;verticalAlign=middle;whiteSpace=wrap;rounded=0;strokeWidth=8;" parent="QMJ3Bgp5y9ohieO_kdKa-72" vertex="1">
          <mxGeometry x="86.8421052631579" y="157.5" width="173.6842105263158" height="52.5" as="geometry" />
        </mxCell>
        <mxCell id="QMJ3Bgp5y9ohieO_kdKa-74" value="&lt;span style=&quot;font-size: 25px;&quot;&gt;IMAGEN&lt;/span&gt;" style="text;html=1;strokeColor=none;fillColor=none;align=center;verticalAlign=middle;whiteSpace=wrap;rounded=0;" parent="QMJ3Bgp5y9ohieO_kdKa-72" vertex="1">
          <mxGeometry x="151.97368421052633" width="43.42105263157895" height="40" as="geometry" />
        </mxCell>
        <UserObject label="%date{ddd mmm dd yyyy HH:MM:ss}%" placeholders="1" id="QMJ3Bgp5y9ohieO_kdKa-84">
          <mxCell style="text;html=1;strokeColor=none;fillColor=none;align=center;verticalAlign=middle;whiteSpace=wrap;overflow=hidden;" parent="QMJ3Bgp5y9ohieO_kdKa-72" vertex="1">
            <mxGeometry y="240" width="160" height="20" as="geometry" />
          </mxCell>
        </UserObject>
        <mxCell id="QMJ3Bgp5y9ohieO_kdKa-75" value="" style="rounded=0;whiteSpace=wrap;html=1;opacity=30;" parent="QMJ3Bgp5y9ohieO_kdKa-68" vertex="1">
          <mxGeometry y="170" width="340" height="90" as="geometry" />
        </mxCell>
        <mxCell id="QMJ3Bgp5y9ohieO_kdKa-60" value="" style="group;aspect=fixed;" parent="u8rbjCPiCwM-e9YLDYWu-1" vertex="1" connectable="0">
          <mxGeometry x="860" y="980" width="340" height="335" as="geometry" />
        </mxCell>
        <mxCell id="QMJ3Bgp5y9ohieO_kdKa-61" value="" style="whiteSpace=wrap;html=1;aspect=fixed;fillColor=#1ba1e2;fontColor=#ffffff;strokeColor=#006EAF;" parent="QMJ3Bgp5y9ohieO_kdKa-60" vertex="1">
          <mxGeometry width="335" height="335" as="geometry" />
        </mxCell>
        <mxCell id="QMJ3Bgp5y9ohieO_kdKa-62" value="" style="rounded=0;whiteSpace=wrap;html=1;fillColor=#60a917;strokeColor=#2D7600;fontColor=#ffffff;aspect=fixed;" parent="QMJ3Bgp5y9ohieO_kdKa-60" vertex="1">
          <mxGeometry width="335" height="167.5" as="geometry" />
        </mxCell>
        <mxCell id="QMJ3Bgp5y9ohieO_kdKa-63" value="" style="rounded=0;whiteSpace=wrap;html=1;opacity=30;aspect=fixed;" parent="QMJ3Bgp5y9ohieO_kdKa-60" vertex="1">
          <mxGeometry y="167.5" width="335" height="88.1578947368421" as="geometry" />
        </mxCell>
        <mxCell id="QMJ3Bgp5y9ohieO_kdKa-64" value="" style="group" parent="QMJ3Bgp5y9ohieO_kdKa-60" vertex="1" connectable="0">
          <mxGeometry y="40" width="330" height="280" as="geometry" />
        </mxCell>
        <mxCell id="QMJ3Bgp5y9ohieO_kdKa-65" value="&lt;font style=&quot;font-size: 25px;&quot;&gt;Second: text ksadasdasdadasdadasd&lt;/font&gt;" style="text;html=1;strokeColor=none;fillColor=none;align=center;verticalAlign=middle;whiteSpace=wrap;rounded=0;strokeWidth=8;" parent="QMJ3Bgp5y9ohieO_kdKa-64" vertex="1">
          <mxGeometry x="86.8421052631579" y="157.5" width="173.6842105263158" height="52.5" as="geometry" />
        </mxCell>
        <mxCell id="QMJ3Bgp5y9ohieO_kdKa-66" value="&lt;span style=&quot;font-size: 25px;&quot;&gt;IMAGEN&lt;/span&gt;" style="text;html=1;strokeColor=none;fillColor=none;align=center;verticalAlign=middle;whiteSpace=wrap;rounded=0;" parent="QMJ3Bgp5y9ohieO_kdKa-64" vertex="1">
          <mxGeometry x="151.97368421052633" width="43.42105263157895" height="40" as="geometry" />
        </mxCell>
        <UserObject label="%date{ddd mmm dd yyyy HH:MM:ss}%" placeholders="1" id="QMJ3Bgp5y9ohieO_kdKa-83">
          <mxCell style="text;html=1;strokeColor=none;fillColor=none;align=center;verticalAlign=middle;whiteSpace=wrap;overflow=hidden;" parent="QMJ3Bgp5y9ohieO_kdKa-64" vertex="1">
            <mxGeometry y="240" width="160" height="20" as="geometry" />
          </mxCell>
        </UserObject>
        <mxCell id="QMJ3Bgp5y9ohieO_kdKa-67" value="" style="rounded=0;whiteSpace=wrap;html=1;opacity=30;" parent="QMJ3Bgp5y9ohieO_kdKa-60" vertex="1">
          <mxGeometry y="170" width="340" height="90" as="geometry" />
        </mxCell>
        <mxCell id="QMJ3Bgp5y9ohieO_kdKa-52" value="" style="group;aspect=fixed;" parent="u8rbjCPiCwM-e9YLDYWu-1" vertex="1" connectable="0">
          <mxGeometry x="460" y="980" width="340" height="335" as="geometry" />
        </mxCell>
        <mxCell id="QMJ3Bgp5y9ohieO_kdKa-53" value="" style="whiteSpace=wrap;html=1;aspect=fixed;fillColor=#1ba1e2;fontColor=#ffffff;strokeColor=#006EAF;" parent="QMJ3Bgp5y9ohieO_kdKa-52" vertex="1">
          <mxGeometry width="335" height="335" as="geometry" />
        </mxCell>
        <mxCell id="QMJ3Bgp5y9ohieO_kdKa-54" value="" style="rounded=0;whiteSpace=wrap;html=1;fillColor=#60a917;strokeColor=#2D7600;fontColor=#ffffff;aspect=fixed;" parent="QMJ3Bgp5y9ohieO_kdKa-52" vertex="1">
          <mxGeometry width="335" height="167.5" as="geometry" />
        </mxCell>
        <mxCell id="QMJ3Bgp5y9ohieO_kdKa-55" value="" style="rounded=0;whiteSpace=wrap;html=1;opacity=30;aspect=fixed;" parent="QMJ3Bgp5y9ohieO_kdKa-52" vertex="1">
          <mxGeometry y="167.5" width="335" height="88.1578947368421" as="geometry" />
        </mxCell>
        <mxCell id="QMJ3Bgp5y9ohieO_kdKa-56" value="" style="group" parent="QMJ3Bgp5y9ohieO_kdKa-52" vertex="1" connectable="0">
          <mxGeometry y="40" width="330" height="280" as="geometry" />
        </mxCell>
        <mxCell id="QMJ3Bgp5y9ohieO_kdKa-57" value="&lt;font style=&quot;font-size: 25px;&quot;&gt;Second: text ksadasdasdadasdadasd&lt;/font&gt;" style="text;html=1;strokeColor=none;fillColor=none;align=center;verticalAlign=middle;whiteSpace=wrap;rounded=0;strokeWidth=8;" parent="QMJ3Bgp5y9ohieO_kdKa-56" vertex="1">
          <mxGeometry x="86.8421052631579" y="157.5" width="173.6842105263158" height="52.5" as="geometry" />
        </mxCell>
        <mxCell id="QMJ3Bgp5y9ohieO_kdKa-58" value="&lt;span style=&quot;font-size: 25px;&quot;&gt;IMAGEN&lt;/span&gt;" style="text;html=1;strokeColor=none;fillColor=none;align=center;verticalAlign=middle;whiteSpace=wrap;rounded=0;" parent="QMJ3Bgp5y9ohieO_kdKa-56" vertex="1">
          <mxGeometry x="151.97368421052633" width="43.42105263157895" height="40" as="geometry" />
        </mxCell>
        <UserObject label="%date{ddd mmm dd yyyy HH:MM:ss}%" placeholders="1" id="QMJ3Bgp5y9ohieO_kdKa-82">
          <mxCell style="text;html=1;strokeColor=none;fillColor=none;align=center;verticalAlign=middle;whiteSpace=wrap;overflow=hidden;" parent="QMJ3Bgp5y9ohieO_kdKa-56" vertex="1">
            <mxGeometry y="240" width="160" height="20" as="geometry" />
          </mxCell>
        </UserObject>
        <mxCell id="QMJ3Bgp5y9ohieO_kdKa-59" value="" style="rounded=0;whiteSpace=wrap;html=1;opacity=30;" parent="QMJ3Bgp5y9ohieO_kdKa-52" vertex="1">
          <mxGeometry y="170" width="340" height="90" as="geometry" />
        </mxCell>
        <mxCell id="QMJ3Bgp5y9ohieO_kdKa-232" value="" style="group" parent="u8rbjCPiCwM-e9YLDYWu-1" vertex="1" connectable="0">
          <mxGeometry x="40" y="900" width="385" height="70" as="geometry" />
        </mxCell>
        <mxCell id="QMJ3Bgp5y9ohieO_kdKa-228" value="" style="rounded=1;whiteSpace=wrap;html=1;fillColor=#1ba1e2;fontColor=#ffffff;strokeColor=#006EAF;" parent="QMJ3Bgp5y9ohieO_kdKa-232" vertex="1">
          <mxGeometry width="385" height="70" as="geometry" />
        </mxCell>
        <mxCell id="QMJ3Bgp5y9ohieO_kdKa-229" value="&lt;font style=&quot;font-size: 35px;&quot;&gt;Texto&amp;nbsp;&lt;/font&gt;" style="text;html=1;strokeColor=none;fillColor=none;align=center;verticalAlign=middle;whiteSpace=wrap;rounded=0;fontStyle=1" parent="QMJ3Bgp5y9ohieO_kdKa-232" vertex="1">
          <mxGeometry x="40" width="50" height="40" as="geometry" />
        </mxCell>
        <mxCell id="QMJ3Bgp5y9ohieO_kdKa-230" value="&lt;font style=&quot;font-size: 25px;&quot;&gt;&amp;nbsp;ksadasdasdadasdasdasdasdasd&lt;/font&gt;" style="text;html=1;strokeColor=none;fillColor=none;align=center;verticalAlign=middle;whiteSpace=wrap;rounded=0;strokeWidth=8;" parent="QMJ3Bgp5y9ohieO_kdKa-232" vertex="1">
          <mxGeometry x="92.5" y="40" width="200" height="30" as="geometry" />
        </mxCell>
        <mxCell id="u8rbjCPiCwM-e9YLDYWu-46" value="" style="rounded=0;whiteSpace=wrap;html=1;fillColor=#dae8fc;strokeColor=#6c8ebf;" parent="1" vertex="1">
          <mxGeometry x="-1360" y="-1560" width="340" height="195" as="geometry" />
        </mxCell>
        <mxCell id="u8rbjCPiCwM-e9YLDYWu-47" value="&lt;span style=&quot;font-size: 22px;&quot;&gt;Visualizamos todos los torneos y eventos que los usuarios profesionales juegan, observamos las ultimas noticias con sus fechas&lt;/span&gt;" style="text;html=1;strokeColor=none;fillColor=none;align=center;verticalAlign=middle;whiteSpace=wrap;rounded=0;fontSize=22;" parent="1" vertex="1">
          <mxGeometry x="-1340" y="-1490" width="300" height="55" as="geometry" />
        </mxCell>
        <mxCell id="u8rbjCPiCwM-e9YLDYWu-49" value="" style="rounded=0;whiteSpace=wrap;html=1;fillColor=#dae8fc;strokeColor=#6c8ebf;" parent="1" vertex="1">
          <mxGeometry x="-1370" y="-2070" width="340" height="195" as="geometry" />
        </mxCell>
        <mxCell id="u8rbjCPiCwM-e9YLDYWu-51" style="edgeStyle=orthogonalEdgeStyle;rounded=0;orthogonalLoop=1;jettySize=auto;html=1;entryX=0;entryY=0.191;entryDx=0;entryDy=0;entryPerimeter=0;exitX=0.997;exitY=0.395;exitDx=0;exitDy=0;exitPerimeter=0;" parent="1" source="u8rbjCPiCwM-e9YLDYWu-49" target="u8rbjCPiCwM-e9YLDYWu-1" edge="1">
          <mxGeometry relative="1" as="geometry">
            <mxPoint x="-1020" y="-1993" as="sourcePoint" />
          </mxGeometry>
        </mxCell>
        <mxCell id="u8rbjCPiCwM-e9YLDYWu-50" value="&lt;span style=&quot;font-size: 22px;&quot;&gt;Visualizamos una imagen de fondo de paguina con estilo Hero como parte del encabezado&lt;/span&gt;" style="text;html=1;strokeColor=none;fillColor=none;align=center;verticalAlign=middle;whiteSpace=wrap;rounded=0;fontSize=22;" parent="1" vertex="1">
          <mxGeometry x="-1350" y="-2010" width="300" height="35" as="geometry" />
        </mxCell>
        <mxCell id="u8rbjCPiCwM-e9YLDYWu-54" style="edgeStyle=orthogonalEdgeStyle;rounded=0;orthogonalLoop=1;jettySize=auto;html=1;entryX=-0.005;entryY=0.3;entryDx=0;entryDy=0;entryPerimeter=0;" parent="1" source="u8rbjCPiCwM-e9YLDYWu-52" target="QMJ3Bgp5y9ohieO_kdKa-85" edge="1">
          <mxGeometry relative="1" as="geometry">
            <mxPoint x="-640" y="-1060" as="targetPoint" />
            <Array as="points">
              <mxPoint x="-608" y="-1053" />
            </Array>
          </mxGeometry>
        </mxCell>
        <mxCell id="u8rbjCPiCwM-e9YLDYWu-52" value="" style="rounded=0;whiteSpace=wrap;html=1;fillColor=#dae8fc;strokeColor=#6c8ebf;" parent="1" vertex="1">
          <mxGeometry x="-1360" y="-1170" width="340" height="225" as="geometry" />
        </mxCell>
        <mxCell id="u8rbjCPiCwM-e9YLDYWu-53" value="En esta seccion pretendemos&amp;nbsp; que el usuario inicie el tutorial cuando realize click en el boton.&lt;br&gt;&amp;nbsp;agregamos una imagen con los personajes del juego" style="text;html=1;strokeColor=none;fillColor=none;align=center;verticalAlign=middle;whiteSpace=wrap;rounded=0;fontSize=22;" parent="1" vertex="1">
          <mxGeometry x="-1340" y="-1080" width="300" height="30" as="geometry" />
        </mxCell>
        <mxCell id="u8rbjCPiCwM-e9YLDYWu-60" style="edgeStyle=orthogonalEdgeStyle;rounded=0;orthogonalLoop=1;jettySize=auto;html=1;" parent="1" source="u8rbjCPiCwM-e9YLDYWu-58" target="u8rbjCPiCwM-e9YLDYWu-8" edge="1">
          <mxGeometry relative="1" as="geometry">
            <Array as="points">
              <mxPoint x="-800" y="-2445" />
              <mxPoint x="-800" y="-2445" />
            </Array>
          </mxGeometry>
        </mxCell>
        <mxCell id="u8rbjCPiCwM-e9YLDYWu-58" value="" style="rounded=0;whiteSpace=wrap;html=1;fillColor=#dae8fc;strokeColor=#6c8ebf;" parent="1" vertex="1">
          <mxGeometry x="-1360" y="-2540" width="340" height="195" as="geometry" />
        </mxCell>
        <mxCell id="u8rbjCPiCwM-e9YLDYWu-59" value="&lt;span style=&quot;font-size: 22px;&quot;&gt;Visualizamos el logo del juego con su nombre&lt;/span&gt;" style="text;html=1;strokeColor=none;fillColor=none;align=center;verticalAlign=middle;whiteSpace=wrap;rounded=0;fontSize=22;" parent="1" vertex="1">
          <mxGeometry x="-1340" y="-2460" width="300" height="30" as="geometry" />
        </mxCell>
        <mxCell id="u8rbjCPiCwM-e9YLDYWu-65" value="" style="rounded=0;whiteSpace=wrap;html=1;fillColor=#dae8fc;strokeColor=#6c8ebf;" parent="1" vertex="1">
          <mxGeometry x="-1340" y="260" width="340" height="195" as="geometry" />
        </mxCell>
        <mxCell id="u8rbjCPiCwM-e9YLDYWu-66" value="Visualizamos el&amp;nbsp; copyright" style="text;html=1;strokeColor=none;fillColor=none;align=center;verticalAlign=middle;whiteSpace=wrap;rounded=0;fontSize=22;" parent="1" vertex="1">
          <mxGeometry x="-1310" y="337.5" width="300" height="55" as="geometry" />
        </mxCell>
        <mxCell id="u8rbjCPiCwM-e9YLDYWu-70" style="edgeStyle=orthogonalEdgeStyle;rounded=0;orthogonalLoop=1;jettySize=auto;html=1;" parent="1" source="u8rbjCPiCwM-e9YLDYWu-68" target="u8rbjCPiCwM-e9YLDYWu-15" edge="1">
          <mxGeometry relative="1" as="geometry" />
        </mxCell>
        <mxCell id="u8rbjCPiCwM-e9YLDYWu-68" value="" style="rounded=0;whiteSpace=wrap;html=1;fillColor=#dae8fc;strokeColor=#6c8ebf;" parent="1" vertex="1">
          <mxGeometry x="-90" y="-2751.5" width="330" height="160" as="geometry" />
        </mxCell>
        <mxCell id="u8rbjCPiCwM-e9YLDYWu-69" value="&lt;span style=&quot;font-size: 22px;&quot;&gt;Link para diriguirnos al foro del juego donde se discuten temas relacionado con el juego&lt;/span&gt;" style="text;html=1;strokeColor=none;fillColor=none;align=center;verticalAlign=middle;whiteSpace=wrap;rounded=0;fontSize=22;" parent="1" vertex="1">
          <mxGeometry x="-70" y="-2686.5" width="300" height="30" as="geometry" />
        </mxCell>
        <mxCell id="u8rbjCPiCwM-e9YLDYWu-73" style="edgeStyle=orthogonalEdgeStyle;rounded=0;orthogonalLoop=1;jettySize=auto;html=1;" parent="1" source="u8rbjCPiCwM-e9YLDYWu-71" target="u8rbjCPiCwM-e9YLDYWu-12" edge="1">
          <mxGeometry relative="1" as="geometry">
            <mxPoint x="440" y="-1790" as="targetPoint" />
          </mxGeometry>
        </mxCell>
        <mxCell id="u8rbjCPiCwM-e9YLDYWu-71" value="" style="rounded=0;whiteSpace=wrap;html=1;fillColor=#dae8fc;strokeColor=#6c8ebf;" parent="1" vertex="1">
          <mxGeometry x="-85" y="-2949" width="330" height="160" as="geometry" />
        </mxCell>
        <mxCell id="u8rbjCPiCwM-e9YLDYWu-72" value="&lt;span style=&quot;font-size: 22px;&quot;&gt;Link para diriguirnos hacia una galeria de fotos destacadas del juego y su entorno&lt;/span&gt;" style="text;html=1;strokeColor=none;fillColor=none;align=center;verticalAlign=middle;whiteSpace=wrap;rounded=0;fontSize=22;" parent="1" vertex="1">
          <mxGeometry x="-65" y="-2876.5" width="300" height="30" as="geometry" />
        </mxCell>
        <mxCell id="u8rbjCPiCwM-e9YLDYWu-74" value="" style="rounded=0;whiteSpace=wrap;html=1;fillColor=#dae8fc;strokeColor=#6c8ebf;" parent="1" vertex="1">
          <mxGeometry x="-85" y="-3159" width="330" height="160" as="geometry" />
        </mxCell>
        <mxCell id="u8rbjCPiCwM-e9YLDYWu-76" style="edgeStyle=orthogonalEdgeStyle;rounded=0;orthogonalLoop=1;jettySize=auto;html=1;" parent="1" source="u8rbjCPiCwM-e9YLDYWu-75" target="u8rbjCPiCwM-e9YLDYWu-13" edge="1">
          <mxGeometry relative="1" as="geometry" />
        </mxCell>
        <mxCell id="u8rbjCPiCwM-e9YLDYWu-75" value="&lt;span style=&quot;font-size: 22px;&quot;&gt;Link para diriguirnos a un shop donde se pretende comercializar articulos del juego&lt;/span&gt;" style="text;html=1;strokeColor=none;fillColor=none;align=center;verticalAlign=middle;whiteSpace=wrap;rounded=0;fontSize=22;" parent="1" vertex="1">
          <mxGeometry x="-65" y="-3086.5" width="300" height="30" as="geometry" />
        </mxCell>
        <mxCell id="u8rbjCPiCwM-e9YLDYWu-79" style="edgeStyle=orthogonalEdgeStyle;rounded=0;orthogonalLoop=1;jettySize=auto;html=1;entryX=0.5;entryY=0;entryDx=0;entryDy=0;" parent="1" source="u8rbjCPiCwM-e9YLDYWu-77" target="u8rbjCPiCwM-e9YLDYWu-16" edge="1">
          <mxGeometry relative="1" as="geometry" />
        </mxCell>
        <mxCell id="u8rbjCPiCwM-e9YLDYWu-77" value="" style="rounded=0;whiteSpace=wrap;html=1;fillColor=#dae8fc;strokeColor=#6c8ebf;" parent="1" vertex="1">
          <mxGeometry x="-80" y="-3359" width="330" height="160" as="geometry" />
        </mxCell>
        <mxCell id="u8rbjCPiCwM-e9YLDYWu-78" value="&lt;span style=&quot;font-size: 22px;&quot;&gt;Link para diriguirnos al tutorial del juego donde se explica como jugar&amp;nbsp;&lt;/span&gt;" style="text;html=1;strokeColor=none;fillColor=none;align=center;verticalAlign=middle;whiteSpace=wrap;rounded=0;fontSize=22;" parent="1" vertex="1">
          <mxGeometry x="-60" y="-3286.5" width="300" height="30" as="geometry" />
        </mxCell>
        <mxCell id="QMJ3Bgp5y9ohieO_kdKa-325" value="&lt;span style=&quot;color: rgb(255, 255, 255); font-family: Helvetica; font-size: 17px; font-style: normal; font-variant-ligatures: normal; font-variant-caps: normal; font-weight: 700; letter-spacing: normal; orphans: 2; text-align: center; text-indent: 0px; text-transform: none; widows: 2; word-spacing: 0px; -webkit-text-stroke-width: 0px; background-color: rgb(251, 251, 251); text-decoration-thickness: initial; text-decoration-style: initial; text-decoration-color: initial; float: none; display: inline !important;&quot;&gt;Button Text&lt;/span&gt;" style="text;whiteSpace=wrap;html=1;" parent="1" vertex="1">
          <mxGeometry x="-770" y="-190" width="130" height="40" as="geometry" />
        </mxCell>
        <mxCell id="QMJ3Bgp5y9ohieO_kdKa-326" value="&lt;span style=&quot;color: rgb(255, 255, 255); font-family: Helvetica; font-size: 17px; font-style: normal; font-variant-ligatures: normal; font-variant-caps: normal; font-weight: 700; letter-spacing: normal; orphans: 2; text-align: center; text-indent: 0px; text-transform: none; widows: 2; word-spacing: 0px; -webkit-text-stroke-width: 0px; background-color: rgb(251, 251, 251); text-decoration-thickness: initial; text-decoration-style: initial; text-decoration-color: initial; float: none; display: inline !important;&quot;&gt;Button Text&lt;/span&gt;" style="text;whiteSpace=wrap;html=1;" parent="1" vertex="1">
          <mxGeometry x="-790" y="-330" width="130" height="40" as="geometry" />
        </mxCell>
        <mxCell id="QMJ3Bgp5y9ohieO_kdKa-354" style="edgeStyle=orthogonalEdgeStyle;rounded=0;orthogonalLoop=1;jettySize=auto;html=1;entryX=-0.005;entryY=0.3;entryDx=0;entryDy=0;entryPerimeter=0;" parent="1" edge="1">
          <mxGeometry relative="1" as="geometry">
            <mxPoint x="-1020" y="-1475" as="sourcePoint" />
            <mxPoint x="-598" y="-1480" as="targetPoint" />
            <Array as="points">
              <mxPoint x="-598" y="-1475" />
            </Array>
          </mxGeometry>
        </mxCell>
        <mxCell id="QMJ3Bgp5y9ohieO_kdKa-358" value="" style="rounded=0;whiteSpace=wrap;html=1;fillColor=#dae8fc;strokeColor=#6c8ebf;" parent="1" vertex="1">
          <mxGeometry x="-1360" y="-2310" width="340" height="195" as="geometry" />
        </mxCell>
        <mxCell id="QMJ3Bgp5y9ohieO_kdKa-359" value="&lt;span style=&quot;font-size: 22px;&quot;&gt;VIsualizamos un Boton donde pretendemos que usuario haga click y sea linkeado al registro de usuarios&lt;/span&gt;" style="text;html=1;strokeColor=none;fillColor=none;align=center;verticalAlign=middle;whiteSpace=wrap;rounded=0;fontSize=22;" parent="1" vertex="1">
          <mxGeometry x="-1340" y="-2230" width="300" height="30" as="geometry" />
        </mxCell>
        <mxCell id="QMJ3Bgp5y9ohieO_kdKa-360" style="edgeStyle=orthogonalEdgeStyle;rounded=0;orthogonalLoop=1;jettySize=auto;html=1;exitX=1;exitY=1;exitDx=0;exitDy=0;" parent="1" source="QMJ3Bgp5y9ohieO_kdKa-358" edge="1">
          <mxGeometry relative="1" as="geometry">
            <mxPoint x="-910" y="-2130" as="sourcePoint" />
            <mxPoint x="-485" y="-2130" as="targetPoint" />
            <Array as="points">
              <mxPoint x="-1020" y="-2130" />
            </Array>
          </mxGeometry>
        </mxCell>
        <mxCell id="QMJ3Bgp5y9ohieO_kdKa-361" value="" style="rounded=0;whiteSpace=wrap;html=1;fillColor=#dae8fc;strokeColor=#6c8ebf;" parent="1" vertex="1">
          <mxGeometry x="-1360" y="-710" width="340" height="230" as="geometry" />
        </mxCell>
        <mxCell id="QMJ3Bgp5y9ohieO_kdKa-362" value="En esta seccion le mostramos al usuario la compatibilidad del juego con las distintos sistemas operativos. mostramos un text con un link para que pueda observar los requisitos del juego para su instalacion." style="text;html=1;strokeColor=none;fillColor=none;align=center;verticalAlign=middle;whiteSpace=wrap;rounded=0;fontSize=22;" parent="1" vertex="1">
          <mxGeometry x="-1340" y="-610" width="300" height="30" as="geometry" />
        </mxCell>
        <mxCell id="QMJ3Bgp5y9ohieO_kdKa-364" style="edgeStyle=orthogonalEdgeStyle;rounded=0;orthogonalLoop=1;jettySize=auto;html=1;entryX=-0.005;entryY=0.3;entryDx=0;entryDy=0;entryPerimeter=0;" parent="1" edge="1">
          <mxGeometry relative="1" as="geometry">
            <mxPoint x="-1012.11" y="-555" as="sourcePoint" />
            <mxPoint x="-600.11" y="-560" as="targetPoint" />
            <Array as="points">
              <mxPoint x="-600.11" y="-555" />
            </Array>
          </mxGeometry>
        </mxCell>
        <mxCell id="QMJ3Bgp5y9ohieO_kdKa-367" style="edgeStyle=orthogonalEdgeStyle;rounded=0;orthogonalLoop=1;jettySize=auto;html=1;entryX=-0.005;entryY=0.3;entryDx=0;entryDy=0;entryPerimeter=0;" parent="1" edge="1">
          <mxGeometry relative="1" as="geometry">
            <mxPoint x="-1000" y="385" as="sourcePoint" />
            <mxPoint x="-600" y="380" as="targetPoint" />
            <Array as="points">
              <mxPoint x="-600" y="385" />
            </Array>
          </mxGeometry>
        </mxCell>
        <mxCell id="UQw9M66lNsDNXIj37gev-2" style="edgeStyle=orthogonalEdgeStyle;rounded=0;orthogonalLoop=1;jettySize=auto;html=1;" edge="1" parent="1" source="QMJ3Bgp5y9ohieO_kdKa-368">
          <mxGeometry relative="1" as="geometry">
            <mxPoint x="-610" y="15" as="targetPoint" />
          </mxGeometry>
        </mxCell>
        <mxCell id="QMJ3Bgp5y9ohieO_kdKa-368" value="" style="rounded=0;whiteSpace=wrap;html=1;fillColor=#dae8fc;strokeColor=#6c8ebf;" parent="1" vertex="1">
          <mxGeometry x="-1380" y="-100" width="340" height="230" as="geometry" />
        </mxCell>
        <mxCell id="QMJ3Bgp5y9ohieO_kdKa-369" value="En esta seccion invitamos al usuario a que nos siga por las distintas redes sociales, nuevamente le agreamos un boton para que inicie su registro de usuario y poder jugar" style="text;html=1;strokeColor=none;fillColor=none;align=center;verticalAlign=middle;whiteSpace=wrap;rounded=0;fontSize=22;" parent="1" vertex="1">
          <mxGeometry x="-1360" width="300" height="30" as="geometry" />
        </mxCell>
        <mxCell id="QMJ3Bgp5y9ohieO_kdKa-371" value="" style="rounded=0;whiteSpace=wrap;html=1;fillColor=#dae8fc;strokeColor=#6c8ebf;" parent="1" vertex="1">
          <mxGeometry x="-1370" y="-450" width="340" height="230" as="geometry" />
        </mxCell>
        <mxCell id="UQw9M66lNsDNXIj37gev-1" style="edgeStyle=orthogonalEdgeStyle;rounded=0;orthogonalLoop=1;jettySize=auto;html=1;" edge="1" parent="1" source="QMJ3Bgp5y9ohieO_kdKa-372" target="QMJ3Bgp5y9ohieO_kdKa-223">
          <mxGeometry relative="1" as="geometry" />
        </mxCell>
        <mxCell id="QMJ3Bgp5y9ohieO_kdKa-372" value="Le mostramos un boton de descarga para que inicie un donwload del juego directamente" style="text;html=1;strokeColor=none;fillColor=none;align=center;verticalAlign=middle;whiteSpace=wrap;rounded=0;fontSize=22;" parent="1" vertex="1">
          <mxGeometry x="-1350" y="-350" width="300" height="30" as="geometry" />
        </mxCell>
      </root>
    </mxGraphModel>
  </diagram>
  <diagram id="kPMtDnkR3lovclmlNsZ3" name="Página-2">
    <mxGraphModel dx="1050" dy="573" grid="1" gridSize="10" guides="1" tooltips="1" connect="1" arrows="1" fold="1" page="1" pageScale="1" pageWidth="827" pageHeight="1169" math="0" shadow="0">
      <root>
        <mxCell id="0" />
        <mxCell id="1" parent="0" />
      </root>
    </mxGraphModel>
  </diagram>
</mxfile>
